<?xml version="1.0" encoding="UTF-8" standalone="no"?>
<svg width="155px" height="40px" viewBox="0 0 155 40" version="1.1" xmlns="http://www.w3.org/2000/svg" xmlns:xlink="http://www.w3.org/1999/xlink">
    <title>Miami Dolphins Bahamian Website Logo</title>
    <desc>Logo for the fansite, Miami Dolphins Bahamian Website</desc>
    <defs>
        <path d="M67.0615067,0.627031057 L74.2815849,0.627031057 C74.2815849,0.627031057 74.972325,0.56835168 75.5071456,1.01347667 C76.0780122,1.49213273 76.050349,2.45615107 76.050349,2.45615107 L76.050349,37.1817681 C76.050349,37.1817681 76.0386131,38.2706897 75.4258328,38.7309037 C74.9262198,39.1081282 74.1793152,39.0678909 74.1793152,39.0678909 L68.0104361,39.0678909 C68.0104361,39.0678909 67.0464178,39.0888479 66.5878803,38.6311487 C66.0262349,38.068665 66.0597659,37.1817681 66.0597659,37.1817681 L66.0597659,34.9519518 C64.6598437,36.6997589 63.3848246,37.8792144 62.2313557,38.4911565 C60.6931178,39.2959022 58.97968,39.6974368 57.0918806,39.6974368 C53.298678,39.6974368 50.400755,38.2556007 48.39895,35.3702519 C46.397145,32.4865797 45.3962425,28.980906 45.3962425,24.8557458 C45.3962425,20.241032 46.5019296,16.7110483 48.7133038,14.2641183 C50.9255163,11.8146734 53.7354202,10.5916276 57.144692,10.5916276 C58.8053184,10.5916276 60.3117018,10.871612 61.6680337,11.4315809 C63.0218508,11.9898733 64.2239397,12.8298266 65.2734623,13.9480879 L65.2734623,2.46118073 C65.2734623,2.46118073 65.2617264,1.6053001 65.7663691,1.1316737 C66.2752031,0.649664531 67.0615067,0.627031057 67.0615067,0.627031057 L67.0615067,0.627031057 Z M65.351422,25.0661533 C65.351422,22.8807657 64.887855,21.2519938 63.9623973,20.1756464 C63.0352632,19.1009755 61.8641905,18.5628018 60.4475027,18.5628018 C59.2060147,18.5628018 58.1673897,19.0791803 57.3274364,20.1102608 C56.4883213,21.1430178 56.0691829,22.8732212 56.0691829,25.3033856 C56.0691829,27.5742775 56.502572,29.2399336 57.3676736,30.2978389 C58.231937,31.3557443 59.3032548,31.8838586 60.5782738,31.8838586 C61.9429885,31.8838586 63.0788536,31.349038 63.9875457,30.2844265 C64.897076,29.2173001 65.351422,27.4778757 65.351422,25.0661533 L65.351422,25.0661533 Z" id="path-1"></path>
        <path d="M88.8122752,1.1316737 C89.3160796,1.6053001 89.3043437,2.46118073 89.3043437,2.46118073 L89.3043437,13.9480879 C90.3538663,12.8298266 91.5559553,11.9898733 92.9106106,11.4315809 C94.2669425,10.871612 95.7724876,10.5916276 97.4339523,10.5916276 C100.842386,10.5916276 103.653966,11.8146734 105.864502,14.2641183 C108.075876,16.7110483 109.180725,20.241032 109.180725,24.8557458 C109.180725,28.980906 108.179823,32.4865797 106.178856,35.3702519 C104.176213,38.2556007 101.279128,39.6974368 97.4859254,39.6974368 C95.5981261,39.6974368 93.8863648,39.2959022 92.345612,38.4911565 C91.1929814,37.8792144 89.9162858,36.6997589 88.5188784,34.9519518 L88.5188784,37.1817681 C88.5188784,37.1817681 88.5507329,38.068665 87.9890874,38.6311487 C87.5322265,39.0888479 86.5665317,39.0678909 86.5665317,39.0678909 L80.3976526,39.0678909 C80.3976526,39.0678909 79.6515862,39.1081282 79.1519732,38.7309037 C78.5400312,38.2706897 78.5291336,37.1817681 78.5291336,37.1817681 L78.5291336,2.45615107 C78.5291336,2.45615107 78.4989556,1.49213273 79.0714987,1.01347667 C79.6063193,0.56835168 80.2970594,0.627031057 80.2970594,0.627031057 L87.5162993,0.627031057 C87.5162993,0.627031057 88.3017647,0.649664531 88.8122752,1.1316737 L88.8122752,1.1316737 Z M90.5894221,30.2844265 C91.4997907,31.349038 92.6348175,31.8838586 93.9978556,31.8838586 C95.2745512,31.8838586 96.3450307,31.3557443 97.2109706,30.2978389 C98.0760723,29.2399336 98.5077849,27.5742775 98.5077849,25.3033856 C98.5077849,22.8732212 98.0894847,21.1430178 97.2503697,20.1102608 C96.4104163,19.0791803 95.370953,18.5628018 94.1294651,18.5628018 C92.7136155,18.5628018 91.5433811,19.1009755 90.6145704,20.1756464 C89.6899511,21.2519938 89.226384,22.8807657 89.226384,25.0661533 C89.226384,27.4778757 89.6815683,29.2173001 90.5894221,30.2844265 L90.5894221,30.2844265 Z" id="path-2"></path>
        <path id="path-3" d="M47.6771937,37.9521445 C46.6536577,37.2396092 46.060996,36.6804786 45.294811,35.5353924 C43.3407877,32.6181891 42.2929417,29.1460466 42.2929417,25.0217246 C42.2929417,23.9830997 42.348268,23.0023158 42.4605971,22.0751816 C42.5586754,21.2612148 42.7280074,20.6358603 42.6886083,19.7590228 C42.6483711,18.8821852 42.1261246,17.4143625 42.1261246,17.4143625 L40.4286141,12.1860301 C40.4286141,12.1860301 40.2978429,11.598398 39.5484234,11.0585477 C38.8006805,10.5195357 38.1560456,10.5849213 38.1560456,10.5849213 L31.96118,10.5849213 C31.96118,10.5849213 31.4481545,10.5404927 30.7565762,11.0183105 C30.0666744,11.4961282 29.8805769,12.1877066 29.8805769,12.1877066 L25.6397345,26.1081314 C25.6397345,26.1081314 25.1786822,27.6086469 24.9431265,27.6086469 C24.6488913,27.6086469 24.1761032,26.12825 24.1761032,26.12825 L19.7801796,12.1877066 C19.7801796,12.1877066 19.5748017,11.4693034 18.9435793,11.0141191 C18.3500793,10.5849213 17.6274847,10.5849213 17.6274847,10.5849213 L11.6438648,10.5849213 C11.6438648,10.5849213 10.8684587,10.5513903 10.1366431,11.0208253 C9.40231259,11.4885837 9.21202376,12.1893832 9.21202376,12.1893832 L0.168693481,37.7434136 C0.168693481,37.7434136 -0.0241101863,38.359547 0.383292346,38.9957991 C0.790694877,39.631213 1.54095263,39.5716953 1.54095263,39.5716953 L7.55642705,39.5716953 C7.55642705,39.5716953 8.72833804,39.6077412 9.36039875,39.1693224 C9.99162119,38.7317419 10.242266,37.7517963 10.242266,37.7517963 L13.900506,23.4357049 C13.900506,23.4357049 13.9298457,23.1632649 14.3020406,23.1632649 C14.6750738,23.1632649 14.7471656,23.4289987 14.7471656,23.4289987 L19.5421089,37.741737 C19.5421089,37.741737 19.8053279,38.6646798 20.5555856,39.1349531 C21.3050051,39.6060647 22.3729697,39.5716953 22.3729697,39.5716953 L27.5560353,39.5716953 C27.5560353,39.5716953 28.5175388,39.6328895 29.3977295,38.9714891 C30.2779201,38.3092504 30.3902492,37.7434136 30.3902492,37.7434136 L35.0041248,23.4289987 C35.0041248,23.4289987 35.0904673,23.1649415 35.4123656,23.1649415 C35.7342639,23.1649415 35.8030026,23.4281604 35.8030026,23.4281604 L39.4478302,37.7434136 C39.4478302,37.7434136 39.7881706,38.7132999 40.3791557,39.15591 C40.9701409,39.601035 41.8696119,39.5716953 41.8696119,39.5716953 L47.2454811,39.5716953 C47.2454811,39.5716953 48.0753752,39.5297815 48.1684239,39.0184326 C48.2648257,38.4794206 47.6771937,37.9521445 47.6771937,37.9521445"></path>
        <path id="path-4" d="M106.891391,12.310095 C107.951811,13.1324446 108.686142,13.7510929 109.449812,14.7100815 C111.636038,17.4579529 112.275643,21.1153547 112.275643,25.2413532 C112.275643,26.2799781 112.220317,27.260762 112.106311,28.1878962 C112.008233,29.0027012 111.839739,29.6272175 111.879977,30.5032167 C111.919376,31.3783777 112.44246,32.847877 112.44246,32.847877 L114.140809,38.0770477 C114.140809,38.0770477 114.269066,38.6630032 115.019323,39.2020152 C115.767904,39.7410272 116.412539,39.6764799 116.412539,39.6764799 L122.607405,39.6764799 C122.607405,39.6764799 123.12043,39.7217469 123.811171,39.2430908 C124.501911,38.7661113 124.688008,38.0753712 124.688008,38.0753712 L128.928012,24.1524316 C128.92885,24.1524316 129.388226,22.6527544 129.625459,22.6527544 C129.918855,22.6527544 130.391644,24.1331512 130.391644,24.1331512 L134.786729,38.0753712 C134.786729,38.0753712 134.993783,38.7912596 135.624167,39.2481205 C136.216829,39.6764799 136.940262,39.6764799 136.940262,39.6764799 L142.92472,39.6764799 C142.92472,39.6764799 143.699288,39.7108493 144.431942,39.2414142 C145.164596,38.7744941 145.355723,38.0720181 145.355723,38.0720181 L154.396538,12.5196642 C154.396538,12.5196642 154.591857,11.904369 154.183616,11.2656021 C153.779567,10.6310266 153.026794,10.6880294 153.026794,10.6880294 L147.010481,10.6880294 C147.010481,10.6880294 145.839409,10.6553366 145.208186,11.0920788 C144.576126,11.5296593 144.324642,12.5104432 144.324642,12.5104432 L140.666402,26.8273729 C140.666402,26.8273729 140.637901,27.0989746 140.266544,27.0989746 C139.892673,27.0989746 139.820581,26.8357557 139.820581,26.8357557 L135.026476,12.5196642 C135.026476,12.5196642 134.763257,11.5967215 134.012161,11.1256099 C133.261903,10.6553366 132.195615,10.6880294 132.195615,10.6880294 L127.011711,10.6880294 C127.011711,10.6880294 126.051046,10.62935 125.170856,11.2915887 C124.288988,11.9521508 124.177497,12.5196642 124.177497,12.5196642 L119.56446,26.8340791 C119.56446,26.8340791 119.478118,27.0989746 119.157058,27.0989746 C118.835159,27.0989746 118.764744,26.8357557 118.764744,26.8357557 L115.120755,12.5196642 C115.120755,12.5196642 114.778738,11.5506162 114.188591,11.1054912 C113.597606,10.6603663 112.698973,10.6880294 112.698973,10.6880294 L107.322266,10.6880294 C107.322266,10.6880294 106.49321,10.7316198 106.400161,11.2438069 C106.303759,11.7836572 106.891391,12.310095 106.891391,12.310095"></path>
    </defs>
    <g id="Logo">
        <g id="Fill-1">
            <use fill="none" xlink:href="#path-1"></use>
            <use fill="#006A72" fill-rule="evenodd" xlink:href="#path-1"></use>
        </g>
        <g id="Fill-2">
            <use fill="none" xlink:href="#path-2"></use>
            <use fill="#006A72" fill-rule="evenodd" xlink:href="#path-2"></use>
        </g>
        <g id="Fill-3">
            <use fill="none" xlink:href="#path-3"></use>
            <use fill="#006A72" fill-rule="evenodd" xlink:href="#path-3"></use>
        </g>
        <g id="Fill-4">
            <use fill="none" xlink:href="#path-4"></use>
            <use fill="#006A72" fill-rule="evenodd" xlink:href="#path-4"></use>
        </g>
    </g>
</svg>